<svg width="32" height="32" viewBox="0 0 32 32" version="1.1" xmlns="http://www.w3.org/2000/svg" xml:space="preserve" style="fill-rule:evenodd;clip-rule:evenodd;stroke-linecap:round;stroke-linejoin:round;">
    <path d="M16.403,12.881c2.6,-3.9 -2.6,-3.9 0,-7.8" style="fill:none;fill-rule:nonzero;stroke:white;stroke-width:2px;"/>
    <path d="M20.954,12.881c2.6,-3.9 -2.6,-3.9 0,-7.8" style="fill:none;fill-rule:nonzero;stroke:white;stroke-width:2px;"/>
    <path d="M8.235,16.497l0.013,0" style="fill:none;fill-rule:nonzero;stroke:white;stroke-width:2px;"/>
    <path d="M14.4,20.679l0,-4.2" style="fill:none;fill-rule:nonzero;stroke:white;stroke-width:2px;"/>
    <path d="M18.6,20.679l0,-4.2" style="fill:none;fill-rule:nonzero;stroke:white;stroke-width:2px;"/>
    <path d="M22.8,20.679l0,-4.2" style="fill:none;fill-rule:nonzero;stroke:white;stroke-width:2px;"/>
    <path d="M25.53,11.549l0.87,0c1.426,0 2.6,1.174 2.6,2.6l0,8.667c0,1.426 -1.174,2.6 -2.6,2.6l-20.8,0c-1.426,0 -2.6,-1.174 -2.6,-2.6l0,-8.667c0,-1.426 1.174,-2.6 2.6,-2.6l6.928,0.039" style="fill:none;fill-rule:nonzero;stroke:white;stroke-width:2px;"/>
</svg>
